<svg class="pattern-svg" viewBox="0 0 313 223" fill="none" xmlns="http://www.w3.org/2000/svg">
    <g class="pattern__group">
        <path d="M42.6854 0C49.9999 42.2158 68.7377 80.5157 95.5993 111.6H42.687C20.8173 78.7056 5.94724 40.8126 0 0H42.6854Z" fill="currentColor"></path>

        <path d="M146.866 0C154.18 42.2158 172.918 80.5157 199.78 111.6H146.867C124.998 78.7056 110.128 40.8126 104.18 0H146.866Z" fill="currentColor"></path>

        <path d="M251.05 0C258.364 42.2158 277.102 80.5157 303.964 111.6H251.051C229.182 78.7056 214.312 40.8126 208.365 0H251.05Z" fill="currentColor"></path>
    </g>
    <g class="pattern__group">
        <path d="M42.6854 111.6C49.9999 153.816 68.7377 192.116 95.5993 223.2H42.687C20.8173 190.305 5.94724 152.412 0 111.6H42.6854Z" fill="currentColor"></path>

        <path d="M146.866 111.6C154.18 153.816 172.918 192.116 199.78 223.2H146.867C124.998 190.305 110.128 152.412 104.18 111.6H146.866Z" fill="currentColor"></path>

        <path d="M251.05 111.6C258.364 153.816 277.102 192.116 303.964 223.2H251.051C229.182 190.305 214.312 152.412 208.365 111.6H251.05Z" fill="currentColor"></path>
    </g>

</svg>