<svg width="223" height="52" viewBox="0 0 223 52" fill="none" xmlns="http://www.w3.org/2000/svg">
<path fill-rule="evenodd" clip-rule="evenodd" d="M19.4378 8.92215C22.3964 7.21738 23.8756 6.365 25.5 6.365C27.1244 6.365 28.6036 7.21739 31.5622 8.92215L37.2878 12.2214C40.2464 13.9261 41.7256 14.7785 42.5378 16.1825C43.35 17.5865 43.35 19.2912 43.35 22.7008V29.2992C43.35 32.7088 43.35 34.4135 42.5378 35.8175C41.7256 37.2215 40.2464 38.0739 37.2878 39.7786L31.5621 43.0779C28.6037 44.7826 27.1243 45.635 25.5 45.635C23.8757 45.635 22.3963 44.7826 19.4378 43.0778L13.7122 39.7786C10.7536 38.0739 9.27435 37.2215 8.46218 35.8175C7.65 34.4135 7.65 32.7088 7.65 29.2992V22.7008C7.65 19.2912 7.65 17.5865 8.46218 16.1825C9.27435 14.7785 10.7536 13.9261 13.7122 12.2214L19.4378 8.92215ZM18.105 19.115C17.6825 19.115 17.34 19.4575 17.34 19.88V22.5811C17.34 23.0036 17.6825 23.3461 18.105 23.3461H22.6194C23.0419 23.3461 23.3844 23.6886 23.3844 24.1111V34.67C23.3844 35.0925 23.7269 35.435 24.1494 35.435H26.8506C27.2731 35.435 27.6156 35.0925 27.6156 34.67V24.1111C27.6156 23.6886 27.9581 23.3461 28.3806 23.3461H32.895C33.3175 23.3461 33.66 23.0036 33.66 22.5811V19.88C33.66 19.4575 33.3175 19.115 32.895 19.115H18.105Z" fill="white"/>
<path fill-rule="evenodd" clip-rule="evenodd" d="M0 24.7459C0 13.3163 0 7.60146 3.55073 4.05073C7.10146 0.5 12.8163 0.5 24.2459 0.5H26.7541C38.1837 0.5 43.8985 0.5 47.4493 4.05073C51 7.60146 51 13.3163 51 24.7459V27.2541C51 38.6837 51 44.3985 47.4493 47.9493C43.8985 51.5 38.1837 51.5 26.7541 51.5H24.2459C12.8163 51.5 7.10146 51.5 3.55073 47.9493C0 44.3985 0 38.6837 0 27.2541V24.7459ZM24.2459 2.03H26.7541C32.5122 2.03 36.6768 2.03325 39.8524 2.4602C42.984 2.88123 44.9237 3.68889 46.3674 5.1326C47.8111 6.57631 48.6188 8.51601 49.0398 11.6476C49.4668 14.8232 49.47 18.9878 49.47 24.7459V27.2541C49.47 33.0122 49.4668 37.1768 49.0398 40.3524C48.6188 43.484 47.8111 45.4237 46.3674 46.8674C44.9237 48.3111 42.984 49.1188 39.8524 49.5398C36.6768 49.9668 32.5122 49.97 26.7541 49.97H24.2459C18.4878 49.97 14.3232 49.9668 11.1476 49.5398C8.01601 49.1188 6.07631 48.3111 4.6326 46.8674C3.18889 45.4237 2.38123 43.484 1.9602 40.3524C1.53325 37.1768 1.53 33.0122 1.53 27.2541V24.7459C1.53 18.9878 1.53325 14.8232 1.9602 11.6476C2.38123 8.51601 3.18889 6.57631 4.6326 5.1326C6.07631 3.68889 8.01601 2.88123 11.1476 2.4602C14.3232 2.03325 18.4878 2.03 24.2459 2.03Z" fill="white"/>
<path d="M81.1053 39.005H76.8825V18.0669H68.4369V14.196H89.5509V18.0669H81.1053V39.005Z" fill="white"/>
<path d="M96.1493 20.3543C98.4953 20.3543 100.337 21.0933 101.674 22.5713C103.035 24.0258 103.715 26.0785 103.715 28.7295V39.005H100.724L99.8794 36.1194C99.3633 36.9874 98.6008 37.7499 97.5921 38.4068C96.5833 39.0402 95.3868 39.3569 94.0027 39.3569C92.7828 39.3569 91.6801 39.1106 90.6948 38.6179C89.733 38.1252 88.9822 37.4332 88.4427 36.5417C87.9031 35.6502 87.6333 34.6414 87.6333 33.5154C87.6333 31.7793 88.3136 30.3952 89.6743 29.3629C91.0584 28.3072 93.0643 27.7794 95.6918 27.7794H99.6331C99.5392 26.5595 99.1639 25.5976 98.507 24.8938C97.8736 24.1665 97.0173 23.8029 95.9381 23.8029C95.0701 23.8029 94.3194 24.0141 93.686 24.4363C93.0525 24.8586 92.5833 25.3747 92.2784 25.9847L88.5482 25.3513C88.994 23.8029 89.9089 22.583 91.293 21.6915C92.7006 20.8 94.3194 20.3543 96.1493 20.3543ZM94.9528 35.9435C96.3604 35.9435 97.4982 35.486 98.3662 34.5711C99.2343 33.6561 99.6683 32.4479 99.6683 30.9465H95.8326C93.0877 30.9465 91.7153 31.7441 91.7153 33.3394C91.7153 34.137 92.0086 34.7705 92.5951 35.2397C93.1816 35.7089 93.9675 35.9435 94.9528 35.9435Z" fill="white"/>
<path d="M108.105 39.005V20.7062H111.132L111.906 23.3454C112.492 22.3836 113.184 21.7032 113.982 21.3044C114.803 20.9056 115.788 20.7062 116.938 20.7062H117.712L118.064 24.5771H115.742C113.349 24.5771 112.152 25.7853 112.152 28.2017V39.005H108.105Z" fill="white"/>
<path d="M127.49 20.3543C129.836 20.3543 131.678 21.0933 133.015 22.5713C134.376 24.0258 135.056 26.0785 135.056 28.7295V39.005H132.065L131.22 36.1194C130.704 36.9874 129.942 37.7499 128.933 38.4068C127.924 39.0402 126.728 39.3569 125.344 39.3569C124.124 39.3569 123.021 39.1106 122.036 38.6179C121.074 38.1252 120.323 37.4332 119.784 36.5417C119.244 35.6502 118.974 34.6414 118.974 33.5154C118.974 31.7793 119.655 30.3952 121.015 29.3629C122.4 28.3072 124.405 27.7794 127.033 27.7794H130.974C130.88 26.5595 130.505 25.5976 129.848 24.8938C129.215 24.1665 128.358 23.8029 127.279 23.8029C126.411 23.8029 125.66 24.0141 125.027 24.4363C124.394 24.8586 123.924 25.3747 123.619 25.9847L119.889 25.3513C120.335 23.8029 121.25 22.583 122.634 21.6915C124.042 20.8 125.66 20.3543 127.49 20.3543ZM126.294 35.9435C127.701 35.9435 128.839 35.486 129.707 34.5711C130.575 33.6561 131.009 32.4479 131.009 30.9465H127.174C124.429 30.9465 123.056 31.7441 123.056 33.3394C123.056 34.137 123.35 34.7705 123.936 35.2397C124.523 35.7089 125.309 35.9435 126.294 35.9435Z" fill="white"/>
<path d="M139.446 39.005V20.7062H142.473L143.282 23.451C143.869 22.4892 144.643 21.7384 145.605 21.1989C146.59 20.6358 147.646 20.3543 148.772 20.3543C150.086 20.3543 151.27 20.6827 152.326 21.3396C153.382 21.9965 154.215 22.8997 154.824 24.0492C155.434 25.1988 155.739 26.5008 155.739 27.9553V39.005H151.693V28.4128C151.693 27.099 151.317 26.0316 150.566 25.2105C149.816 24.3894 148.854 23.9789 147.681 23.9789C146.461 23.9789 145.452 24.4011 144.655 25.2457C143.88 26.0668 143.493 27.1225 143.493 28.4128V39.005H139.446Z" fill="white"/>
<path d="M171.043 35.486L170.691 39.005H167.278C165.284 39.005 163.771 38.5358 162.738 37.5974C161.706 36.6355 161.19 35.2514 161.19 33.445V24.2252H158.199V20.7062H161.19L162.211 15.4277H165.237V20.7062H170.691V24.2252H165.237V33.445C165.237 34.8057 165.917 35.486 167.278 35.486H171.043Z" fill="white"/>
<path d="M182.608 39.3569C180.731 39.3569 179.042 38.9581 177.54 38.1604C176.062 37.3393 174.901 36.2133 174.056 34.7822C173.235 33.3277 172.825 31.6855 172.825 29.8556C172.825 28.0257 173.235 26.3952 174.056 24.9642C174.901 23.5097 176.062 22.3836 177.54 21.5859C179.042 20.7648 180.731 20.3543 182.608 20.3543C184.484 20.3543 186.162 20.7648 187.64 21.5859C189.141 22.3836 190.302 23.5097 191.124 24.9642C191.968 26.3952 192.39 28.0257 192.39 29.8556C192.39 31.6855 191.968 33.3277 191.124 34.7822C190.302 36.2133 189.141 37.3393 187.64 38.1604C186.162 38.9581 184.484 39.3569 182.608 39.3569ZM182.608 35.6619C184.25 35.6619 185.587 35.1341 186.619 34.0784C187.651 32.9992 188.168 31.5916 188.168 29.8556C188.168 28.1196 187.651 26.7237 186.619 25.668C185.587 24.5888 184.25 24.0492 182.608 24.0492C180.965 24.0492 179.628 24.5888 178.596 25.668C177.564 26.7237 177.048 28.1196 177.048 29.8556C177.048 31.5916 177.564 32.9992 178.596 34.0784C179.628 35.1341 180.965 35.6619 182.608 35.6619Z" fill="white"/>
<path d="M204.636 39.3569C202.759 39.3569 201.07 38.9581 199.568 38.1604C198.09 37.3393 196.929 36.2133 196.084 34.7822C195.263 33.3277 194.853 31.6855 194.853 29.8556C194.853 28.0257 195.263 26.3952 196.084 24.9642C196.929 23.5097 198.09 22.3836 199.568 21.5859C201.07 20.7648 202.759 20.3543 204.636 20.3543C206.512 20.3543 208.19 20.7648 209.668 21.5859C211.169 22.3836 212.331 23.5097 213.152 24.9642C213.996 26.3952 214.418 28.0257 214.418 29.8556C214.418 31.6855 213.996 33.3277 213.152 34.7822C212.331 36.2133 211.169 37.3393 209.668 38.1604C208.19 38.9581 206.512 39.3569 204.636 39.3569ZM204.636 35.6619C206.278 35.6619 207.615 35.1341 208.647 34.0784C209.68 32.9992 210.196 31.5916 210.196 29.8556C210.196 28.1196 209.68 26.7237 208.647 25.668C207.615 24.5888 206.278 24.0492 204.636 24.0492C202.993 24.0492 201.656 24.5888 200.624 25.668C199.592 26.7237 199.076 28.1196 199.076 29.8556C199.076 31.5916 199.592 32.9992 200.624 34.0784C201.656 35.1341 202.993 35.6619 204.636 35.6619Z" fill="white"/>
<path d="M222.159 39.005H218.113V14.196H222.159V39.005Z" fill="white"/>
</svg>
